<svg
   width="37.867188mm"
   height="37.847893mm"
   viewBox="0 0 37.867188 37.847893"
   version="1.1"
   id="svg5"
   xml:space="preserve"
   xmlns="http://www.w3.org/2000/svg"
   xmlns:svg="http://www.w3.org/2000/svg"><defs
     id="defs2" /><g
     id="layer1"
     transform="translate(-80.299082,-106.95014)"><g
       id="g65660"
       transform="translate(6.2027027,75.527027)"><path
         style="fill:#e4df36;fill-opacity:1;stroke-width:0.211667"
         d="m 96.443917,65.679548 c 0.01016,-0.246581 0.06031,-0.296735 0.12788,-0.127882 0.06114,0.152796 0.05363,0.335358 -0.0167,0.405695 -0.07034,0.07034 -0.120363,-0.05468 -0.111172,-0.277813 z M 92.405539,52.679687 v -3.386666 h 0.529167 0.529166 v 3.386666 3.386667 h -0.529166 -0.529167 z m 2.328333,0 c 0,-3.154536 0.02685,-3.386666 0.391748,-3.386666 1.905807,0 2.860371,-1.990213 1.554586,-3.241233 -1.151502,-1.10321 -2.809142,-0.450422 -3.124473,1.230436 -0.110076,0.586758 -0.238313,0.740797 -0.616714,0.740797 -0.39844,0 -0.496858,-0.142534 -0.592914,-0.858685 -0.06959,-0.518817 -0.302882,-1.021484 -0.589424,-1.27 -1.139279,-0.988092 -2.949475,-0.106474 -2.949475,1.436481 0,1.16053 0.457733,1.698015 1.590761,1.867923 l 0.949239,0.142348 -0.0089,2.780549 -0.0089,2.78055 -0.517989,-1.247557 c -0.517041,-1.245273 -2.101116,-3.514943 -2.453191,-3.514943 -0.102259,0 -0.185926,-0.134937 -0.185926,-0.299861 0,-0.164923 -0.07144,-0.331611 -0.15875,-0.370416 -0.348307,-0.154803 -1.74625,-3.354041 -1.74625,-3.996349 0,-0.26141 -0.144263,-0.413373 -0.392425,-0.413373 -0.657837,0 -1.512575,-0.959034 -1.512575,-1.697142 0,-0.948707 0.317603,-1.410134 1.162542,-1.688989 0.562644,-0.185689 0.742458,-0.362954 0.742458,-0.731935 0,-0.586308 0.902892,-2.925485 1.27,-3.290267 0.05858,-0.05821 0.245616,-0.375435 0.415636,-0.704949 0.623407,-1.208211 2.873273,-3.157156 4.643967,-4.022835 0.783549,-0.383071 2.4633,-0.466224 3.238354,-0.160308 0.267416,0.105549 0.995538,0.397934 1.618052,0.649743 0.622516,0.25181 1.270445,0.40465 1.439841,0.339646 0.468891,-0.17993 1.34415,0.494608 1.34415,1.035898 0,0.261346 0.23812,0.653998 0.52916,0.872562 0.29104,0.218563 0.52917,0.474012 0.52917,0.567665 0,0.09365 0.1676,0.350183 0.37246,0.570065 0.5573,0.598199 1.67088,2.939395 1.93508,4.068326 0.51963,2.220404 0.20112,4.760624 -0.8707,6.944186 -0.40761,0.830411 -2.33318,3.513721 -2.734087,3.81 -0.305842,0.226022 -1.222699,2.579258 -1.35897,3.487979 l -0.143514,0.957021 H 96.61484 94.733872 Z M 94.482294,42.088109 c 0.544074,-0.506883 0.57232,-0.696062 0.155565,-1.041938 -0.244203,-0.20267 -0.441169,-0.176498 -0.954711,0.126859 -0.62453,0.368919 -0.672091,0.368715 -1.367635,-0.0059 -1.129852,-0.608466 -1.646202,0.055 -0.716729,0.920939 0.327685,0.305285 0.749591,0.43158 1.441755,0.43158 0.692164,0 1.11407,-0.126295 1.441755,-0.431579 z m -6.109897,-0.295428 c 0.138615,-0.16702 0.221715,-0.619457 0.184668,-1.005416 -0.05658,-0.589453 -0.152034,-0.701744 -0.596526,-0.701744 -0.444491,0 -0.539945,0.112291 -0.596525,0.701744 -0.06307,0.657046 0.234055,1.309089 0.596525,1.309089 0.08791,0 0.273244,-0.136652 0.411858,-0.303673 z m 10.129142,0.04967 c 0.574076,-0.574075 0.221619,-1.862666 -0.50948,-1.862666 -0.456323,0 -0.50652,0.0909 -0.50652,0.917222 0,0.504472 0.0635,0.980722 0.141112,1.058333 0.216797,0.2168 0.593852,0.168147 0.874888,-0.112889 z m -21.094067,9.802184 c -0.312748,-0.198166 -0.149499,-1.081517 0.199871,-1.081517 0.110885,0 0.586223,-0.242796 1.056306,-0.539547 0.941986,-0.59465 1.676891,-0.539344 1.676891,0.126196 0,0.266278 -0.380246,0.622856 -1.11125,1.042083 -1.196544,0.686211 -1.381052,0.732067 -1.821818,0.452785 z m 29.792718,-0.189116 c -1.05642,-0.503022 -1.45965,-0.87549 -1.45965,-1.348295 0,-0.508554 0.58397,-0.747945 1.03418,-0.423954 0.18791,0.135222 0.55216,0.337077 0.80945,0.448567 0.25729,0.11149 0.66847,0.403386 0.91375,0.648658 0.35474,0.354749 0.39446,0.507983 0.1942,0.749286 -0.31991,0.385466 -0.55054,0.373986 -1.49193,-0.07426 z M 89.988915,47.67491 c -0.07521,-0.196004 0.02239,-0.520459 0.223377,-0.742547 0.333659,-0.368688 0.382351,-0.371457 0.745937,-0.04242 0.213937,0.193611 0.388977,0.527757 0.388977,0.742547 0,0.515436 -1.162842,0.551749 -1.358291,0.04242 z m 4.744957,-0.173609 c 0,-0.75345 0.684524,-1.066614 1.166739,-0.533773 0.305333,0.337392 0.324747,0.471119 0.106557,0.734022 -0.146738,0.176809 -0.49326,0.321471 -0.770046,0.321471 -0.393773,0 -0.50325,-0.113495 -0.50325,-0.52172 z M 75.341829,43.696218 c -0.311939,-0.812899 -0.01004,-1.068836 1.33691,-1.133385 1.149294,-0.05508 1.337136,-0.0085 1.547146,0.383947 0.392297,0.733014 -0.07004,1.054574 -1.516239,1.054574 -0.893971,0 -1.284125,-0.08704 -1.367817,-0.305136 z m 32.419011,-0.08838 c -0.2558,-0.805935 0.0725,-1.088152 1.26587,-1.088152 1.44304,0 1.79383,0.144873 1.79383,0.740833 0,0.5967 -0.35063,0.740833 -1.80222,0.740833 -0.91808,0 -1.15624,-0.07453 -1.25748,-0.393514 z m -29.0078,-7.028525 c -0.34925,-0.228008 -0.795099,-0.470461 -0.990775,-0.538784 -0.516459,-0.180332 -0.66246,-0.742489 -0.289659,-1.11529 0.289051,-0.289052 0.449543,-0.254257 1.542361,0.334387 0.952289,0.512947 1.219739,0.765972 1.219739,1.153951 0,0.647425 -0.635035,0.718459 -1.481666,0.165736 z m 27.12861,0.295929 c -0.40435,-0.404352 -0.0564,-0.934607 1.01575,-1.548044 0.94505,-0.5407 1.23571,-0.619692 1.5875,-0.43142 0.65367,0.349833 0.53438,0.577805 -0.72336,1.382371 -1.13661,0.727081 -1.60206,0.874919 -1.87989,0.597093 z"
         id="path65674" /><path
         style="fill:#e8cc3f;fill-opacity:1;stroke-width:0.211667"
         d="m 87.45895,55.590104 c -0.0702,-0.261938 -0.128931,-0.653132 -0.13052,-0.869322 -0.0047,-0.644376 -1.236167,-3.029739 -2.077048,-4.023386 -1.401076,-1.655617 -1.495187,-1.792242 -2.016993,-2.928182 -0.853033,-1.857 -0.988951,-2.475226 -0.986558,-4.487362 0.0031,-2.582613 0.495957,-4.191034 1.88757,-6.159664 1.932353,-2.733582 4.656864,-4.307744 8.025119,-4.636737 0.975943,-0.09532 1.095596,-0.06802 0.873665,0.199393 -0.141431,0.170414 -0.365819,0.309844 -0.498639,0.309844 -0.757632,0 -3.975402,2.77472 -4.582704,3.951718 -0.17002,0.329514 -0.357056,0.64674 -0.415636,0.704949 -0.367108,0.364782 -1.27,2.703959 -1.27,3.290267 0,0.368981 -0.179814,0.546246 -0.742458,0.731935 -0.844939,0.278855 -1.162542,0.740282 -1.162542,1.688989 0,0.738108 0.854738,1.697142 1.512575,1.697142 0.248162,0 0.392425,0.151963 0.392425,0.413373 0,0.642308 1.397943,3.841546 1.74625,3.996349 0.08731,0.0388 0.15875,0.14583 0.15875,0.237832 0,0.092 0.38491,0.584128 0.855355,1.093611 0.991289,1.073548 2.106746,3.262652 2.26547,4.446023 l 0.109915,0.819478 h -1.908183 c -1.799929,0 -1.915424,-0.02702 -2.035813,-0.47625 z M 98.592979,41.038021 c 0,-0.407458 0.04356,-0.574146 0.0968,-0.370416 0.05324,0.203729 0.05324,0.537104 0,0.740833 -0.05324,0.203729 -0.0968,0.03704 -0.0968,-0.370417 z"
         id="path65672" /><path
         style="fill:#a3a3a3;fill-opacity:1;stroke-width:0.211667"
         d="m 93.424185,32.426762 c 0.152797,-0.06114 0.335359,-0.05362 0.405694,0.01671 0.07034,0.07034 -0.05468,0.120362 -0.277812,0.111171 -0.24658,-0.01016 -0.296736,-0.06031 -0.127882,-0.127881 z"
         id="path65670" /><path
         style="fill:#767676;fill-opacity:1;stroke-width:0.211667"
         d="m 91.372321,67.45617 c -0.363063,-0.37135 -0.660115,-0.833374 -0.660115,-1.026721 0,-0.305151 0.146232,-0.328424 1.108164,-0.176362 0.609491,0.09635 1.633429,0.09188 2.275417,-0.0099 0.641989,-0.101809 1.199762,-0.154419 1.239496,-0.116905 0.168258,0.158854 -0.233206,0.944175 -0.743583,1.454552 -0.438257,0.438249 -0.755415,0.550547 -1.554909,0.550547 -0.850158,0 -1.105699,-0.103659 -1.66447,-0.675183 z m 2.620718,-7.579817 c -0.07195,-0.116416 -0.93147,-0.211666 -1.910045,-0.211666 -1.95799,0 -2.217455,-0.166789 -2.217455,-1.425418 0,-1.080165 0.154103,-1.114582 4.990582,-1.114582 4.91183,0 5.028306,0.02921 5.028306,1.26112 0,1.028059 -0.467517,1.27888 -2.383769,1.27888 -0.997858,0 -1.708452,0.08804 -1.708452,0.211666 0,0.116417 -0.375379,0.211667 -0.834175,0.211667 -0.458796,0 -0.893043,-0.09525 -0.964992,-0.211667 z"
         id="path65668" /><path
         style="fill:#606060;fill-opacity:1;stroke-width:0.211667"
         d="m 90.484304,64.537994 c -1.166201,-0.602329 -1.977056,-1.45567 -2.478016,-2.60785 -0.527228,-1.212598 -0.540456,-1.207124 2.917584,-1.207124 2.681111,0 3.175,-0.04939 3.175,-0.3175 0,-0.219839 0.22091,-0.3175 0.718188,-0.3175 0.443128,0 0.764848,0.121601 0.840024,0.3175 0.08966,0.233661 0.458944,0.3175 1.398479,0.3175 0.737367,0 1.276642,0.09238 1.276642,0.218703 0,0.120288 -0.233443,0.67938 -0.518761,1.242428 -1.393279,2.749505 -4.580934,3.773261 -7.32914,2.353843 z m -4.099262,-5.343738 c -0.181227,-0.258735 -0.329503,-0.618543 -0.329503,-0.799569 0,-0.181026 0.148276,-0.540834 0.329503,-0.799569 0.297282,-0.42443 0.508398,-0.470431 2.159,-0.470431 1.422942,0 1.773053,0.05644 1.575497,0.254 -0.31195,0.31195 -0.33076,1.323736 -0.03489,1.876581 0.208623,0.389816 0.133192,0.409419 -1.575497,0.409419 -1.614552,0 -1.827672,-0.0472 -2.124114,-0.470431 z m 7.164998,-6.514569 c 0,-1.920875 0.03209,-2.706687 0.07131,-1.74625 0.03922,0.960438 0.03922,2.532063 0,3.4925 -0.03922,0.960438 -0.07131,0.174625 -0.07131,-1.74625 z m -0.06946,-4.991805 c 0.01016,-0.24658 0.06031,-0.296735 0.127882,-0.127882 0.06114,0.152797 0.05362,0.335359 -0.01671,0.405694 -0.07034,0.07034 -0.120363,-0.05468 -0.111172,-0.277812 z"
         id="path65666" /><path
         style="fill:#494949;fill-opacity:1;stroke-width:0.211667"
         d="m 90.659289,49.152838 c 0.145521,-0.05872 0.383646,-0.05872 0.529167,0 0.145521,0.05872 0.02646,0.106762 -0.264584,0.106762 -0.291041,0 -0.410104,-0.04804 -0.264583,-0.106762 z m 2.014862,-0.0065 c 0.205944,-0.05367 0.491694,-0.05014 0.635,0.0078 0.143305,0.05798 -0.02519,0.10189 -0.374445,0.09758 -0.34925,-0.0043 -0.4665,-0.05175 -0.260555,-0.105419 z m 2.218471,0.0065 c 0.145521,-0.05872 0.383646,-0.05872 0.529167,0 0.145521,0.05872 0.02646,0.106762 -0.264583,0.106762 -0.291042,0 -0.410105,-0.04804 -0.264584,-0.106762 z M 76.160123,41.521414 c 0.320146,-0.0485 0.844021,-0.0485 1.164167,0 0.320146,0.0485 0.05821,0.08818 -0.582083,0.08818 -0.640292,0 -0.90223,-0.03968 -0.582084,-0.08818 z m 32.596667,0 c 0.32014,-0.0485 0.84402,-0.0485 1.16416,0 0.32015,0.0485 0.0582,0.08818 -0.58208,0.08818 -0.64029,0 -0.90223,-0.03968 -0.58208,-0.08818 z"
         id="path65664" /><path
         style="fill:#333333;fill-opacity:1;stroke-width:0.211667"
         d="m 92.271362,69.241598 c -0.368197,-0.04167 -1.044667,-0.401466 -1.520372,-0.808652 -0.693139,-0.593301 -0.907384,-0.958594 -1.120348,-1.910219 -0.210613,-0.941119 -0.46766,-1.38532 -1.284211,-2.219238 -0.56149,-0.573433 -1.020892,-1.173336 -1.020892,-1.333119 0,-0.159783 -0.142875,-0.409091 -0.3175,-0.554017 -0.174625,-0.144926 -0.3175,-0.529122 -0.3175,-0.853768 0,-0.406129 -0.214601,-0.77079 -0.687916,-1.168944 -0.998207,-0.839692 -1.311511,-1.691953 -0.986729,-2.684134 0.142412,-0.435057 0.482216,-0.937315 0.755121,-1.116129 1.078355,-0.706564 0.295648,-3.346678 -1.60685,-5.419993 -0.46828,-0.510325 -0.907459,-1.094552 -0.975953,-1.298281 -0.06849,-0.203729 -0.203368,-0.370417 -0.299722,-0.370417 -0.09635,0 -0.528315,-0.881062 -0.959914,-1.957916 -0.725552,-1.810278 -0.785851,-2.126277 -0.799661,-4.19063 -0.01084,-1.620364 0.09006,-2.549199 0.36789,-3.386666 0.478243,-1.441568 1.418103,-3.376454 1.640094,-3.376454 0.09184,0 0.168362,-0.119062 0.17006,-0.264583 0.0029,-0.245747 1.651297,-1.923928 2.6875,-2.736002 0.714684,-0.560098 2.180929,-1.310971 3.447747,-1.765612 0.926934,-0.332662 1.681763,-0.414699 3.704166,-0.40258 2.27841,0.01365 2.692595,0.07693 4.021667,0.614395 1.697067,0.686281 2.010833,0.890083 2.010833,1.30611 0,0.48261 -0.56762,0.561625 -1.314822,0.183029 -1.620383,-0.821022 -2.600708,-1.03045 -4.823511,-1.03045 -2.404219,0 -3.450583,0.257332 -5.402759,1.3287 -2.246758,1.233038 -4.403717,3.959167 -5.139517,6.495717 -0.517666,1.784571 -0.195147,6.202092 0.517609,7.089659 0.129904,0.161764 0.301661,0.507706 0.381682,0.768759 0.140962,0.459862 1.612097,2.48294 2.117557,2.912024 0.137139,0.116417 0.47017,0.640292 0.74007,1.164167 0.269901,0.523875 0.621145,1.205321 0.780543,1.514325 0.159399,0.309003 0.289815,0.801276 0.289815,1.093937 0,1.135799 0.117382,1.201738 2.139313,1.201738 h 1.882354 v -3.4925 -3.4925 h -0.80977 c -1.652829,0 -2.352395,-1.864726 -1.136565,-3.029566 1.149775,-1.101554 2.661737,-0.483332 2.934912,1.200047 0.108539,0.668851 0.202036,0.771186 0.704581,0.771186 0.516311,0 0.59185,-0.09256 0.6934,-0.849672 0.222428,-1.658328 1.728017,-2.199855 2.888827,-1.039046 0.77366,0.773662 0.84579,1.58435 0.212585,2.389339 -0.340887,0.433368 -0.624038,0.557712 -1.27,0.557712 h -0.831304 v 3.4925 3.4925 h 1.87578 1.875779 l 0.231483,-1.152648 c 0.363825,-1.811617 0.981432,-2.890599 3.166606,-5.532168 1.16028,-1.402616 1.94744,-3.919508 1.94744,-6.22685 0,-2.998198 -0.98183,-5.404597 -3.02966,-7.425524 -0.60201,-0.594104 -0.69029,-1.246305 -0.19119,-1.412489 0.26886,-0.08952 1.84109,1.383138 2.31729,2.170513 0.52902,0.874717 1.30218,2.575847 1.62852,3.583123 0.64891,2.002912 0.3836,5.766709 -0.53427,7.579421 -0.10236,0.20215 -0.19024,0.4879 -0.19528,0.635 -0.009,0.248277 -0.31187,0.680508 -2.65355,3.780809 -0.87459,1.157918 -1.0398,1.528847 -1.355883,3.044232 -0.162571,0.779401 -0.119825,0.90449 0.570003,1.668049 0.67991,0.752581 0.7361,0.911151 0.63637,1.795977 -0.0867,0.769326 -0.26729,1.115217 -0.87108,1.668549 -0.418931,0.383919 -0.761691,0.842796 -0.761691,1.019724 0,0.890729 -2.106852,3.905948 -2.729239,3.905948 -0.09632,0 -0.231027,0.471981 -0.299349,1.048844 -0.06832,0.576866 -0.281942,1.289564 -0.474718,1.583773 -0.679266,1.036692 -2.118831,1.610372 -3.615871,1.440961 z m 2.437395,-1.785428 c 1.162066,-1.188588 0.978388,-1.33565 -1.668218,-1.33565 -2.107537,0 -2.328333,0.03641 -2.328333,0.383914 0,0.211155 0.261937,0.659006 0.582083,0.995225 0.490298,0.514915 0.75335,0.612915 1.668218,0.621502 0.948818,0.0089 1.16959,-0.07517 1.74625,-0.664991 z m 0.614234,-2.797579 c 1.086187,-0.554234 1.841286,-1.287644 2.552192,-2.478887 0.753986,-1.263432 0.647791,-1.456684 -0.800485,-1.456684 -1.299005,0 -1.585931,-0.149555 -1.36942,-0.713778 0.09785,-0.254991 0.536304,-0.342288 1.956365,-0.389517 1.762504,-0.05862 1.840554,-0.08242 2.108624,-0.642955 0.230123,-0.48119 0.230033,-0.682976 -4.24e-4,-1.164166 L 99.490945,57.23052 93.163913,57.1744 c -5.662984,-0.05023 -6.36803,-0.01901 -6.717653,0.29739 -0.497831,0.45053 -0.502643,1.390902 -0.0094,1.837279 0.314799,0.284891 1.006259,0.355141 3.96875,0.403223 3.539132,0.05744 3.588445,0.06465 3.655171,0.534475 0.06758,0.475812 0.06471,0.47625 -3.122084,0.47625 -3.459377,0 -3.42575,-0.01336 -2.971709,1.180855 1.026052,2.698722 4.74009,4.089554 7.356107,2.754716 z m -1.695126,-12.03182 -0.05816,-3.439584 -0.582084,-0.06698 -0.582083,-0.06698 v 3.50656 3.506559 h 0.640243 0.640244 z m -2.280659,-5.106999 c 0,-0.937625 -1.08322,-1.288116 -1.40328,-0.454052 -0.21813,0.568438 0.09125,0.957301 0.761637,0.957301 0.534496,0 0.641643,-0.08404 0.641643,-0.503249 z m 4.736422,0.177381 c 0.124215,-0.323702 -0.262166,-1.155799 -0.536693,-1.155799 -0.506449,0 -0.813063,0.327826 -0.813063,0.869313 0,0.53425 0.0781,0.612354 0.612354,0.612354 0.356042,0 0.664695,-0.136398 0.737402,-0.325868 z m -19.048837,5.001883 c -1.017492,-0.620445 -1.165488,-1.905515 -0.319607,-2.775181 0.65149,-0.669809 2.732499,-1.534987 3.330868,-1.384806 1.672408,0.419748 1.76613,2.598239 0.147903,3.437871 -0.40839,0.211897 -1.04254,0.547381 -1.409222,0.745518 -0.853757,0.461329 -0.957282,0.459945 -1.749942,-0.0234 z m 3.069031,-1.999998 c 0.350395,-0.422199 0.225482,-1.064502 -0.22385,-1.151035 -0.562463,-0.108321 -2.714432,1.207474 -2.714432,1.659705 0,0.707028 0.603412,0.813997 1.675171,0.296963 0.54529,-0.263056 1.11369,-0.625591 1.263111,-0.805633 z m 27.118378,2.001558 c -0.40745,-0.220972 -1.06184,-0.570483 -1.45418,-0.776691 -1.30856,-0.687756 -1.51186,-2.371879 -0.38186,-3.16336 0.6586,-0.461302 1.22672,-0.389417 2.59002,0.327723 1.46608,0.771204 1.77256,1.135982 1.77256,2.109753 0,0.816408 -0.2763,1.285009 -0.97804,1.658759 -0.60635,0.322946 -0.67841,0.31568 -1.5485,-0.156184 z M 108.56432,51.736 c 0.54243,-0.411018 0.2852,-1.062142 -0.5554,-1.40586 -0.37449,-0.153125 -0.80675,-0.401493 -0.96058,-0.551931 -0.15384,-0.150437 -0.51103,-0.273522 -0.79375,-0.273522 -0.42172,0 -0.51405,0.1063 -0.51405,0.591802 0,0.489088 0.19287,0.706232 1.11125,1.251106 1.31552,0.780496 1.22282,0.759473 1.71253,0.388405 z M 74.62554,44.643739 c -0.426254,-0.327473 -0.529167,-0.592358 -0.529167,-1.362015 0,-1.35775 0.391362,-1.593548 2.658838,-1.601971 1.536843,-0.0057 1.882553,0.05884 2.275417,0.424847 0.670786,0.624933 0.625403,1.766685 -0.09683,2.436028 -0.493661,0.45751 -0.750929,0.518501 -2.169583,0.514353 -1.257537,-0.0037 -1.725228,-0.09361 -2.138675,-0.411242 z m 3.68632,-0.989704 c 0.0733,-0.191025 0.07708,-0.5244 0.0084,-0.740833 -0.105648,-0.332869 -0.347236,-0.393514 -1.567612,-0.393514 -1.286829,0 -1.455255,0.04795 -1.558759,0.443749 -0.227305,0.869214 0.02436,1.037917 1.548336,1.037917 1.136325,0 1.464215,-0.07255 1.569653,-0.347319 z m 28.91034,1.13011 c -0.42357,-0.349634 -0.84666,-1.119699 -0.84666,-1.540994 0,-0.187337 0.19698,-0.617254 0.43774,-0.955372 0.42751,-0.600374 0.48219,-0.614758 2.33719,-0.614758 1.52192,0 1.97559,0.07362 2.28257,0.370417 0.83037,0.802803 0.65648,2.332547 -0.3155,2.775408 -0.71028,0.323628 -3.49124,0.298855 -3.89534,-0.0347 z m 3.4925,-1.523624 v -0.635 l -1.41627,-0.0623 c -1.25843,-0.05536 -1.4429,-0.01257 -1.65511,0.383946 -0.42,0.784773 0.0719,1.081257 1.67595,1.010185 l 1.39543,-0.06183 z M 91.835804,42.26686 c -0.584426,-0.28242 -0.780297,-0.77153 -0.462375,-1.154603 0.209109,-0.251961 0.317577,-0.248013 0.737038,0.02683 0.558708,0.366079 1.475506,0.426765 1.670905,0.110602 0.239694,-0.387833 0.9525,-0.238413 0.9525,0.199664 0,0.888243 -1.737465,1.378359 -2.898068,0.817507 z m -4.256265,-0.424506 c -0.513582,-0.513582 -0.237633,-1.862666 0.381,-1.862666 0.410859,0 0.635,0.402093 0.635,1.139145 0,0.439738 -0.349345,0.977521 -0.635,0.977521 -0.06985,0 -0.2413,-0.1143 -0.381,-0.254 z m 9.998322,-0.253637 c -0.21664,-0.863169 -0.03064,-1.503196 0.436844,-1.503196 0.467487,0 0.653485,0.640027 0.436844,1.503196 -0.164467,0.655284 -0.70922,0.655284 -0.873688,0 z M 77.631754,37.305843 c -1.225907,-0.806917 -1.582549,-1.428233 -1.385464,-2.413658 0.263448,-1.317237 1.450189,-1.589366 3.177479,-0.728621 1.432493,0.713841 1.859649,1.223262 1.859649,2.217791 0,1.830595 -1.643087,2.246574 -3.651664,0.924488 z m 2.602952,-0.916291 c 0,-0.416808 -0.236659,-0.64608 -1.183664,-1.14672 -0.685443,-0.362363 -1.331372,-0.56907 -1.534583,-0.49109 -0.506814,0.194483 -0.431139,0.937473 0.125331,1.230519 0.261937,0.137941 0.523875,0.310616 0.582083,0.383721 0.217149,0.272724 1.178739,0.628413 1.5875,0.587211 0.29711,-0.02995 0.423333,-0.198006 0.423333,-0.563641 z m 25.079914,1.413821 c -0.56735,-0.457053 -0.85513,-1.365404 -0.62463,-1.971651 0.21492,-0.565286 0.9902,-1.332059 1.36805,-1.353032 0.11641,-0.0065 0.44979,-0.198012 0.74083,-0.425668 1.31036,-1.024978 2.96333,-0.221879 2.96333,1.439736 0,0.807176 -0.0775,0.933204 -0.89958,1.4626 -1.85666,1.195652 -2.82821,1.427864 -3.548,0.848015 z m 2.34996,-1.368221 c 1.12712,-0.633582 1.38886,-1.008423 1.01703,-1.456459 -0.35024,-0.422014 -0.74026,-0.362329 -1.90424,0.291412 -0.84823,0.4764 -1.03644,0.687766 -1.03662,1.164166 -2.1e-4,0.769471 0.55609,0.769726 1.92383,8.89e-4 z"
         id="path65662" /></g></g>
        </svg>
