<svg width="1920" height="109" viewBox="0 0 1920 109" fill="none" xmlns="http://www.w3.org/2000/svg">
<path opacity="0.1" d="M-3 14C119.047 14.6411 195.971 32.7917 389.675 55.4097C518.811 70.4884 728.253 75.7461 1018 71.1828C628.347 121.999 288.013 120.212 -3 65.8197" fill="white"/>
<path opacity="0.1" d="M131.765 76.7085C370.304 44.2346 570.283 24.5247 731.702 17.5787C893.122 10.6328 1087.09 13.7979 1313.61 27.0742C1249.17 28.1225 1086.79 46.8455 826.487 83.2432C566.18 119.641 334.606 117.463 131.765 76.7085Z" fill="white"/>
<path opacity="0.2" d="M1403.7 23.6521C1517.76 1.32881 1717.09 -10.3921 1932.1 12.1657V92C1706.45 49.9435 1530.32 27.1609 1403.7 23.6521Z" fill="white"/>
<path d="M-4.76367 38.035C71.3762 57.198 126.666 69.809 161.105 75.865C238.594 89.495 309.64 94.29 360.381 97.459C413.25 100.759 527.913 99.801 614.487 95.663C649.089 94.01 692.07 90.372 743.43 84.752C795.626 78.596 831.425 74.008 850.822 70.991C887.278 65.324 952.606 53.503 972.914 50.128C1043.99 38.317 1095.58 26.532 1145.98 19.904C1235.21 8.16901 1279.56 6.52201 1354.2 4.43201C1420.78 5.47701 1470.1 7.12901 1502.17 9.38701C1556.58 13.219 1619.66 21.821 1655.66 26.304C1723.5 34.748 1815.6 51.432 1931.95 76.354L1932.36 108.352L-3.8709 108.031L-4.76367 38.035Z" fill="white"/>
</svg>
